<mxfile host="app.diagrams.net" modified="2022-02-17T10:29:06.237Z" agent="5.0 (Windows NT 10.0; Win64; x64) AppleWebKit/537.36 (KHTML, like Gecko) Chrome/98.0.4758.102 Safari/537.36" etag="oGSg2M9F0trqp73Ii03l" version="16.5.6" type="github">
  <diagram id="R2lEEEUBdFMjLlhIrx00" name="Page-1">
    <mxGraphModel dx="865" dy="518" grid="1" gridSize="10" guides="1" tooltips="1" connect="1" arrows="1" fold="1" page="1" pageScale="1" pageWidth="850" pageHeight="1100" math="0" shadow="0" extFonts="Permanent Marker^https://fonts.googleapis.com/css?family=Permanent+Marker">
      <root>
        <mxCell id="0" />
        <mxCell id="1" parent="0" />
        <mxCell id="5cgS5gC3nsyXIrHYZKxY-3" value="Flights" style="swimlane;" parent="1" vertex="1">
          <mxGeometry x="590" y="810" width="200" height="180" as="geometry" />
        </mxCell>
        <mxCell id="5cgS5gC3nsyXIrHYZKxY-6" value="&lt;u&gt;flight_id&lt;/u&gt;&lt;br&gt;&lt;br&gt;from_city&lt;br&gt;to_city&lt;br&gt;departure_time&lt;br&gt;arrival_time" style="whiteSpace=wrap;html=1;" parent="5cgS5gC3nsyXIrHYZKxY-3" vertex="1">
          <mxGeometry y="20" width="200" height="160" as="geometry" />
        </mxCell>
        <mxCell id="5cgS5gC3nsyXIrHYZKxY-26" value="" style="shape=link;html=1;rounded=0;entryX=0.5;entryY=0;entryDx=0;entryDy=0;exitX=0.5;exitY=1;exitDx=0;exitDy=0;" parent="1" source="Evib72I_MXNBv95BmRi8-51" target="Evib72I_MXNBv95BmRi8-5" edge="1">
          <mxGeometry width="100" relative="1" as="geometry">
            <mxPoint x="1240" y="620" as="sourcePoint" />
            <mxPoint x="1240" y="690" as="targetPoint" />
          </mxGeometry>
        </mxCell>
        <mxCell id="5cgS5gC3nsyXIrHYZKxY-29" value="" style="shape=link;html=1;rounded=0;exitX=1;exitY=0.5;exitDx=0;exitDy=0;entryX=0;entryY=0.5;entryDx=0;entryDy=0;" parent="1" target="Evib72I_MXNBv95BmRi8-51" edge="1">
          <mxGeometry width="100" relative="1" as="geometry">
            <mxPoint x="1020" y="560" as="sourcePoint" />
            <mxPoint x="1130" y="560" as="targetPoint" />
          </mxGeometry>
        </mxCell>
        <mxCell id="OOgBa5XnB34mj8tSmzPa-1" value="name&lt;br&gt;dob&lt;br&gt;gender&lt;br&gt;address&lt;br&gt;contact_number" style="rounded=0;whiteSpace=wrap;html=1;" parent="1" vertex="1">
          <mxGeometry x="390" y="160" width="140" height="90" as="geometry" />
        </mxCell>
        <mxCell id="OOgBa5XnB34mj8tSmzPa-2" value="Person" style="swimlane;" parent="1" vertex="1">
          <mxGeometry x="390" y="140" width="140" height="110" as="geometry" />
        </mxCell>
        <mxCell id="lETodxlRY9u0hScoEiqJ-1" value="Staff" style="swimlane;" parent="1" vertex="1">
          <mxGeometry x="390" y="490" width="140" height="100" as="geometry" />
        </mxCell>
        <mxCell id="lETodxlRY9u0hScoEiqJ-2" value="&lt;u&gt;&lt;span style=&quot;color: rgb(0 , 0 , 0) ; font-family: &amp;#34;helvetica&amp;#34; ; font-size: 12px ; font-style: normal ; font-weight: 400 ; letter-spacing: normal ; text-align: center ; text-indent: 0px ; text-transform: none ; word-spacing: 0px ; background-color: rgb(248 , 249 , 250) ; display: inline ; float: none&quot;&gt;staff_id&lt;/span&gt;&lt;/u&gt;" style="rounded=0;whiteSpace=wrap;html=1;" parent="lETodxlRY9u0hScoEiqJ-1" vertex="1">
          <mxGeometry y="20" width="140" height="80" as="geometry" />
        </mxCell>
        <mxCell id="dA1D0a5_8HkO4L-cNL_1-34" value="&lt;span style=&quot;color: rgba(0 , 0 , 0 , 0) ; font-family: monospace ; font-size: 0px&quot;&gt;%3CmxGraphModel%3E%3Croot%3E%3CmxCell%20id%3D%220%22%2F%3E%3CmxCell%20id%3D%221%22%20parent%3D%220%22%2F%3E%3CmxCell%20id%3D%222%22%20value%3D%22Flights%22%20style%3D%22swimlane%3B%22%20vertex%3D%221%22%20parent%3D%221%22%3E%3CmxGeometry%20x%3D%221150%22%20y%3D%22880%22%20width%3D%22200%22%20height%3D%22180%22%20as%3D%22geometry%22%2F%3E%3C%2FmxCell%3E%3CmxCell%20id%3D%223%22%20value%3D%22%26lt%3Bu%26gt%3Bflight_id%26lt%3B%2Fu%26gt%3B%26lt%3Bbr%26gt%3B%26lt%3Bu%26gt%3Bpassenger_id%26lt%3B%2Fu%26gt%3B%26lt%3Bbr%26gt%3B%26lt%3Bu%26gt%3Bpilot_id%26lt%3B%2Fu%26gt%3B%26lt%3Bbr%26gt%3B%26lt%3Bbr%26gt%3Bfrom_city%26lt%3Bbr%26gt%3Bto_city%26lt%3Bbr%26gt%3Bdeparture_time%26lt%3Bbr%26gt%3Barrival_time%22%20style%3D%22whiteSpace%3Dwrap%3Bhtml%3D1%3B%22%20vertex%3D%221%22%20parent%3D%222%22%3E%3CmxGeometry%20y%3D%2220%22%20width%3D%22200%22%20height%3D%22160%22%20as%3D%22geometry%22%2F%3E%3C%2FmxCell%3E%3C%2Froot%3E%3C%2FmxGraphModel%3E&lt;/span&gt;" style="text;html=1;align=center;verticalAlign=middle;resizable=0;points=[];autosize=1;strokeColor=none;fillColor=none;" parent="1" vertex="1">
          <mxGeometry x="320" y="670" width="20" height="20" as="geometry" />
        </mxCell>
        <mxCell id="dA1D0a5_8HkO4L-cNL_1-35" value="Pilot" style="swimlane;" parent="1" vertex="1">
          <mxGeometry x="60" y="490" width="220" height="80" as="geometry" />
        </mxCell>
        <mxCell id="dA1D0a5_8HkO4L-cNL_1-36" value="&lt;u&gt;pilot_id&lt;/u&gt;" style="whiteSpace=wrap;html=1;" parent="dA1D0a5_8HkO4L-cNL_1-35" vertex="1">
          <mxGeometry y="20" width="220" height="60" as="geometry" />
        </mxCell>
        <mxCell id="dA1D0a5_8HkO4L-cNL_1-39" value="Passenger" style="swimlane;" parent="1" vertex="1">
          <mxGeometry x="590" y="490" width="200" height="130" as="geometry" />
        </mxCell>
        <mxCell id="dA1D0a5_8HkO4L-cNL_1-40" value="&lt;u&gt;passenger_id&lt;/u&gt;&lt;br&gt;passenger_seatno" style="whiteSpace=wrap;html=1;" parent="dA1D0a5_8HkO4L-cNL_1-39" vertex="1">
          <mxGeometry y="20" width="200" height="110" as="geometry" />
        </mxCell>
        <mxCell id="Evib72I_MXNBv95BmRi8-1" value="" style="shape=flexArrow;endArrow=classic;html=1;rounded=0;exitX=0.5;exitY=0;exitDx=0;exitDy=0;entryX=0.5;entryY=1;entryDx=0;entryDy=0;" edge="1" parent="1" source="dA1D0a5_8HkO4L-cNL_1-35" target="OOgBa5XnB34mj8tSmzPa-2">
          <mxGeometry width="50" height="50" relative="1" as="geometry">
            <mxPoint x="470" y="500" as="sourcePoint" />
            <mxPoint x="520" y="450" as="targetPoint" />
          </mxGeometry>
        </mxCell>
        <mxCell id="Evib72I_MXNBv95BmRi8-2" value="" style="shape=flexArrow;endArrow=classic;html=1;rounded=0;exitX=0.5;exitY=0;exitDx=0;exitDy=0;" edge="1" parent="1" source="lETodxlRY9u0hScoEiqJ-1">
          <mxGeometry width="50" height="50" relative="1" as="geometry">
            <mxPoint x="220" y="500" as="sourcePoint" />
            <mxPoint x="460" y="250" as="targetPoint" />
          </mxGeometry>
        </mxCell>
        <mxCell id="Evib72I_MXNBv95BmRi8-3" value="" style="shape=flexArrow;endArrow=classic;html=1;rounded=0;exitX=0.5;exitY=0;exitDx=0;exitDy=0;entryX=0.5;entryY=1;entryDx=0;entryDy=0;" edge="1" parent="1" source="dA1D0a5_8HkO4L-cNL_1-39" target="OOgBa5XnB34mj8tSmzPa-2">
          <mxGeometry width="50" height="50" relative="1" as="geometry">
            <mxPoint x="230" y="510" as="sourcePoint" />
            <mxPoint x="480" y="270" as="targetPoint" />
          </mxGeometry>
        </mxCell>
        <mxCell id="Evib72I_MXNBv95BmRi8-4" value="has_bought" style="shape=rhombus;double=1;perimeter=rhombusPerimeter;whiteSpace=wrap;html=1;align=center;" vertex="1" parent="1">
          <mxGeometry x="900" y="530" width="120" height="60" as="geometry" />
        </mxCell>
        <mxCell id="Evib72I_MXNBv95BmRi8-5" value="ticket_for_flight" style="shape=rhombus;double=1;perimeter=rhombusPerimeter;whiteSpace=wrap;html=1;align=center;" vertex="1" parent="1">
          <mxGeometry x="1180" y="720" width="120" height="60" as="geometry" />
        </mxCell>
        <mxCell id="Evib72I_MXNBv95BmRi8-6" value="fliy_flight" style="shape=rhombus;perimeter=rhombusPerimeter;whiteSpace=wrap;html=1;align=center;" vertex="1" parent="1">
          <mxGeometry x="40" y="690" width="120" height="60" as="geometry" />
        </mxCell>
        <mxCell id="Evib72I_MXNBv95BmRi8-9" value="board_flight" style="shape=rhombus;perimeter=rhombusPerimeter;whiteSpace=wrap;html=1;align=center;" vertex="1" parent="1">
          <mxGeometry x="400" y="1040" width="120" height="60" as="geometry" />
        </mxCell>
        <mxCell id="Evib72I_MXNBv95BmRi8-10" value="" style="endArrow=none;html=1;rounded=0;exitX=0.5;exitY=0;exitDx=0;exitDy=0;entryX=0.5;entryY=1;entryDx=0;entryDy=0;" edge="1" parent="1" source="Evib72I_MXNBv95BmRi8-9" target="lETodxlRY9u0hScoEiqJ-1">
          <mxGeometry relative="1" as="geometry">
            <mxPoint x="390" y="690" as="sourcePoint" />
            <mxPoint x="550" y="690" as="targetPoint" />
          </mxGeometry>
        </mxCell>
        <mxCell id="Evib72I_MXNBv95BmRi8-12" value="board_flight" style="shape=rhombus;perimeter=rhombusPerimeter;whiteSpace=wrap;html=1;align=center;" vertex="1" parent="1">
          <mxGeometry x="630" y="670" width="120" height="80" as="geometry" />
        </mxCell>
        <mxCell id="Evib72I_MXNBv95BmRi8-13" value="" style="endArrow=none;html=1;rounded=0;entryX=0.5;entryY=0;entryDx=0;entryDy=0;exitX=0.5;exitY=1;exitDx=0;exitDy=0;" edge="1" parent="1" source="dA1D0a5_8HkO4L-cNL_1-40" target="Evib72I_MXNBv95BmRi8-12">
          <mxGeometry relative="1" as="geometry">
            <mxPoint x="390" y="690" as="sourcePoint" />
            <mxPoint x="550" y="690" as="targetPoint" />
          </mxGeometry>
        </mxCell>
        <mxCell id="Evib72I_MXNBv95BmRi8-21" value="1..5" style="text;html=1;align=center;verticalAlign=middle;resizable=0;points=[];autosize=1;strokeColor=none;fillColor=none;" vertex="1" parent="1">
          <mxGeometry x="200" y="570" width="40" height="20" as="geometry" />
        </mxCell>
        <mxCell id="Evib72I_MXNBv95BmRi8-22" value="1" style="text;html=1;align=center;verticalAlign=middle;resizable=0;points=[];autosize=1;strokeColor=none;fillColor=none;" vertex="1" parent="1">
          <mxGeometry x="560" y="880" width="20" height="20" as="geometry" />
        </mxCell>
        <mxCell id="Evib72I_MXNBv95BmRi8-24" value="1" style="text;html=1;align=center;verticalAlign=middle;resizable=0;points=[];autosize=1;strokeColor=none;fillColor=none;" vertex="1" parent="1">
          <mxGeometry x="690" y="790" width="20" height="20" as="geometry" />
        </mxCell>
        <mxCell id="Evib72I_MXNBv95BmRi8-26" value="0..*" style="text;html=1;align=center;verticalAlign=middle;resizable=0;points=[];autosize=1;strokeColor=none;fillColor=none;" vertex="1" parent="1">
          <mxGeometry x="685" y="620" width="30" height="20" as="geometry" />
        </mxCell>
        <mxCell id="Evib72I_MXNBv95BmRi8-28" value="1..*" style="text;html=1;align=center;verticalAlign=middle;resizable=0;points=[];autosize=1;strokeColor=none;fillColor=none;" vertex="1" parent="1">
          <mxGeometry x="460" y="600" width="30" height="20" as="geometry" />
        </mxCell>
        <mxCell id="Evib72I_MXNBv95BmRi8-29" value="1" style="text;html=1;align=center;verticalAlign=middle;resizable=0;points=[];autosize=1;strokeColor=none;fillColor=none;" vertex="1" parent="1">
          <mxGeometry x="690" y="990" width="20" height="20" as="geometry" />
        </mxCell>
        <mxCell id="Evib72I_MXNBv95BmRi8-30" value="1" style="text;html=1;align=center;verticalAlign=middle;resizable=0;points=[];autosize=1;strokeColor=none;fillColor=none;" vertex="1" parent="1">
          <mxGeometry x="790" y="540" width="20" height="20" as="geometry" />
        </mxCell>
        <mxCell id="Evib72I_MXNBv95BmRi8-31" value="1" style="text;html=1;align=center;verticalAlign=middle;resizable=0;points=[];autosize=1;strokeColor=none;fillColor=none;" vertex="1" parent="1">
          <mxGeometry x="1110" y="530" width="20" height="20" as="geometry" />
        </mxCell>
        <mxCell id="Evib72I_MXNBv95BmRi8-32" value="1" style="text;html=1;align=center;verticalAlign=middle;resizable=0;points=[];autosize=1;strokeColor=none;fillColor=none;" vertex="1" parent="1">
          <mxGeometry x="790" y="880" width="20" height="20" as="geometry" />
        </mxCell>
        <mxCell id="Evib72I_MXNBv95BmRi8-33" value="1..*" style="text;html=1;align=center;verticalAlign=middle;resizable=0;points=[];autosize=1;strokeColor=none;fillColor=none;" vertex="1" parent="1">
          <mxGeometry x="1235" y="620" width="30" height="20" as="geometry" />
        </mxCell>
        <mxCell id="Evib72I_MXNBv95BmRi8-34" value="" style="html=1;verticalAlign=bottom;labelBackgroundColor=none;endArrow=block;endFill=1;rounded=0;exitX=0;exitY=0.5;exitDx=0;exitDy=0;entryX=-0.093;entryY=0.871;entryDx=0;entryDy=0;entryPerimeter=0;" edge="1" parent="1" source="Evib72I_MXNBv95BmRi8-4" target="Evib72I_MXNBv95BmRi8-30">
          <mxGeometry width="160" relative="1" as="geometry">
            <mxPoint x="760" y="620" as="sourcePoint" />
            <mxPoint x="920" y="620" as="targetPoint" />
          </mxGeometry>
        </mxCell>
        <mxCell id="Evib72I_MXNBv95BmRi8-35" value="" style="html=1;verticalAlign=bottom;labelBackgroundColor=none;endArrow=block;endFill=1;rounded=0;exitX=0.5;exitY=1;exitDx=0;exitDy=0;" edge="1" parent="1" source="Evib72I_MXNBv95BmRi8-5" target="5cgS5gC3nsyXIrHYZKxY-6">
          <mxGeometry width="160" relative="1" as="geometry">
            <mxPoint x="909.9999999999998" y="570" as="sourcePoint" />
            <mxPoint x="798.1400000000003" y="567.42" as="targetPoint" />
            <Array as="points">
              <mxPoint x="1240" y="910" />
            </Array>
          </mxGeometry>
        </mxCell>
        <mxCell id="Evib72I_MXNBv95BmRi8-36" value="" style="html=1;verticalAlign=bottom;labelBackgroundColor=none;endArrow=block;endFill=1;rounded=0;exitX=0.5;exitY=1;exitDx=0;exitDy=0;entryX=0.5;entryY=0;entryDx=0;entryDy=0;" edge="1" parent="1" source="Evib72I_MXNBv95BmRi8-12" target="5cgS5gC3nsyXIrHYZKxY-3">
          <mxGeometry width="160" relative="1" as="geometry">
            <mxPoint x="909.9999999999998" y="570" as="sourcePoint" />
            <mxPoint x="798.1400000000003" y="567.42" as="targetPoint" />
          </mxGeometry>
        </mxCell>
        <mxCell id="Evib72I_MXNBv95BmRi8-37" value="" style="html=1;verticalAlign=bottom;labelBackgroundColor=none;endArrow=block;endFill=1;rounded=0;entryX=0;entryY=0.5;entryDx=0;entryDy=0;exitX=0.5;exitY=1;exitDx=0;exitDy=0;" edge="1" parent="1" source="Evib72I_MXNBv95BmRi8-6" target="5cgS5gC3nsyXIrHYZKxY-6">
          <mxGeometry width="160" relative="1" as="geometry">
            <mxPoint x="340" y="860" as="sourcePoint" />
            <mxPoint x="808.1400000000003" y="577.42" as="targetPoint" />
            <Array as="points">
              <mxPoint x="100" y="910" />
            </Array>
          </mxGeometry>
        </mxCell>
        <mxCell id="Evib72I_MXNBv95BmRi8-38" value="" style="html=1;verticalAlign=bottom;labelBackgroundColor=none;endArrow=block;endFill=1;rounded=0;entryX=0.5;entryY=1;entryDx=0;entryDy=0;exitX=1;exitY=0.5;exitDx=0;exitDy=0;" edge="1" parent="1" source="Evib72I_MXNBv95BmRi8-9" target="5cgS5gC3nsyXIrHYZKxY-6">
          <mxGeometry width="160" relative="1" as="geometry">
            <mxPoint x="900" y="870" as="sourcePoint" />
            <mxPoint x="818.1400000000003" y="587.42" as="targetPoint" />
            <Array as="points">
              <mxPoint x="690" y="1070" />
            </Array>
          </mxGeometry>
        </mxCell>
        <mxCell id="Evib72I_MXNBv95BmRi8-39" value="boarding_time" style="html=1;align=center;verticalAlign=top;rounded=1;absoluteArcSize=1;arcSize=10;dashed=0;" vertex="1" parent="1">
          <mxGeometry x="780" y="690" width="140" height="40" as="geometry" />
        </mxCell>
        <mxCell id="Evib72I_MXNBv95BmRi8-42" value="" style="endArrow=none;html=1;rounded=0;entryX=0;entryY=0.5;entryDx=0;entryDy=0;exitX=1;exitY=0.5;exitDx=0;exitDy=0;" edge="1" parent="1" source="Evib72I_MXNBv95BmRi8-12" target="Evib72I_MXNBv95BmRi8-39">
          <mxGeometry width="50" height="50" relative="1" as="geometry">
            <mxPoint x="710" y="730" as="sourcePoint" />
            <mxPoint x="760" y="680" as="targetPoint" />
          </mxGeometry>
        </mxCell>
        <mxCell id="Evib72I_MXNBv95BmRi8-43" value="fly_flight" style="shape=rhombus;perimeter=rhombusPerimeter;whiteSpace=wrap;html=1;align=center;" vertex="1" parent="1">
          <mxGeometry x="190" y="690" width="120" height="60" as="geometry" />
        </mxCell>
        <mxCell id="Evib72I_MXNBv95BmRi8-45" value="" style="endArrow=none;html=1;rounded=0;exitX=0.5;exitY=0;exitDx=0;exitDy=0;entryX=0.475;entryY=-0.017;entryDx=0;entryDy=0;entryPerimeter=0;" edge="1" parent="1" source="Evib72I_MXNBv95BmRi8-43" target="Evib72I_MXNBv95BmRi8-21">
          <mxGeometry relative="1" as="geometry">
            <mxPoint x="330" y="680" as="sourcePoint" />
            <mxPoint x="490" y="680" as="targetPoint" />
            <Array as="points">
              <mxPoint x="250" y="650" />
              <mxPoint x="220" y="650" />
            </Array>
          </mxGeometry>
        </mxCell>
        <mxCell id="Evib72I_MXNBv95BmRi8-46" value="co_pilot" style="text;html=1;align=center;verticalAlign=middle;resizable=0;points=[];autosize=1;strokeColor=none;fillColor=none;" vertex="1" parent="1">
          <mxGeometry x="230" y="620" width="60" height="20" as="geometry" />
        </mxCell>
        <mxCell id="Evib72I_MXNBv95BmRi8-47" value="" style="endArrow=none;html=1;rounded=0;exitX=0.5;exitY=0;exitDx=0;exitDy=0;entryX=0.5;entryY=1;entryDx=0;entryDy=0;" edge="1" parent="1" source="Evib72I_MXNBv95BmRi8-6" target="dA1D0a5_8HkO4L-cNL_1-36">
          <mxGeometry relative="1" as="geometry">
            <mxPoint x="330" y="680" as="sourcePoint" />
            <mxPoint x="490" y="680" as="targetPoint" />
            <Array as="points">
              <mxPoint x="100" y="650" />
              <mxPoint x="170" y="650" />
            </Array>
          </mxGeometry>
        </mxCell>
        <mxCell id="Evib72I_MXNBv95BmRi8-48" value="" style="html=1;verticalAlign=bottom;labelBackgroundColor=none;endArrow=block;endFill=1;rounded=0;entryX=0;entryY=0.75;entryDx=0;entryDy=0;exitX=0.5;exitY=1;exitDx=0;exitDy=0;" edge="1" parent="1" source="Evib72I_MXNBv95BmRi8-43" target="5cgS5gC3nsyXIrHYZKxY-6">
          <mxGeometry width="160" relative="1" as="geometry">
            <mxPoint x="110" y="760" as="sourcePoint" />
            <mxPoint x="600" y="920" as="targetPoint" />
            <Array as="points">
              <mxPoint x="250" y="950" />
            </Array>
          </mxGeometry>
        </mxCell>
        <mxCell id="Evib72I_MXNBv95BmRi8-49" value="1" style="text;html=1;align=center;verticalAlign=middle;resizable=0;points=[];autosize=1;strokeColor=none;fillColor=none;" vertex="1" parent="1">
          <mxGeometry x="570" y="930" width="20" height="20" as="geometry" />
        </mxCell>
        <mxCell id="Evib72I_MXNBv95BmRi8-50" value="1..5" style="text;html=1;align=center;verticalAlign=middle;resizable=0;points=[];autosize=1;strokeColor=none;fillColor=none;" vertex="1" parent="1">
          <mxGeometry x="140" y="570" width="40" height="20" as="geometry" />
        </mxCell>
        <mxCell id="Evib72I_MXNBv95BmRi8-51" value="&lt;b&gt;Ticket&lt;/b&gt;&lt;br&gt;&lt;u&gt;passenger_id&lt;/u&gt;&amp;nbsp;&lt;br&gt;flight class&lt;br&gt;&lt;u&gt;flight_id&lt;br&gt;(&lt;/u&gt;dashed underline)" style="shape=ext;margin=3;double=1;whiteSpace=wrap;html=1;align=center;" vertex="1" parent="1">
          <mxGeometry x="1155" y="505" width="170" height="110" as="geometry" />
        </mxCell>
      </root>
    </mxGraphModel>
  </diagram>
</mxfile>
